<svg width="160" height="120" viewBox="0 0 160 120" fill="none" xmlns="http://www.w3.org/2000/svg">
<rect width="160" height="120" fill="white"/>
<path d="M60.4115 25.7557C59.8925 25.7621 56.9197 26.851 53.7752 29.1958C52.0253 30.5006 50.1921 33.6356 47.6322 37.3872C46.3861 39.2133 45.4841 41.0374 44.6091 43.7126C43.7341 46.3877 42.9738 49.8985 42.5347 53.234C42.0956 56.5696 42.0006 59.6235 42.244 62.4527C42.4874 65.2819 43.0719 67.7939 44.1389 70.9014C45.2059 74.0089 46.7376 77.6359 48.0274 80.4919C50.2282 85.3649 51.7453 87.9248 52.73 89.0777C53.8984 90.4456 56.1705 94.0552 61.5 96.5C64.3864 97.8241 66.3265 97.7836 68 99.1758C68.9688 99.9818 71.3126 100.07 72.0796 100.392C72.9343 100.751 74.6827 100.585 77.5426 100.367C81.3409 100.077 84.4902 99.5022 87.0399 99.1758C90.7208 98.7045 93.1887 97.7441 94.3481 97.1026C96.366 95.9862 98.6409 94.6928 101.05 93.3318C102.433 92.5499 103.935 91.236 105.833 89.4338C107.731 87.6316 109.925 85.2923 111.888 82.4187C113.851 79.5451 115.516 76.208 116.585 72.7938C117.655 69.3796 118.078 65.9895 118.388 63.2418C118.924 58.4963 119.121 56.1699 119.224 54.4752C119.642 47.5212 118.385 46.2612 117.774 44.8474C116.854 42.7206 115.991 37.9511 114.068 34.1139C113.576 33.133 111.657 30.7966 108.886 27.0947C106.978 24.5457 105.528 23.6629 103.711 22.7485C99.5738 20.6674 96.0871 19.4428 93.6357 19.1523C84.5672 19.2544 82.0978 19.9787 81.3393 20.0436C80.9879 20.0737 80.7048 20.098 80.4407 20.123" stroke="black" stroke-width="2" stroke-linecap="round"/>
<path d="M79.727 20.8491C79.727 20.9295 79.8044 25.5799 79.9483 32.7858C80.0149 35.3828 80.0682 35.8282 80.0958 36.2282C80.1233 36.6283 80.1233 36.9696 80.371 37.6837" stroke="black" stroke-width="2" stroke-linecap="round"/>
<path d="M78.4051 62.9205C78.4051 62.9002 78.4051 62.2853 78.5152 61.2537C78.5935 60.521 79.2883 60.1751 79.7624 59.8706C81.4076 58.8141 85.0318 60.1411 86.1089 61.0672C86.5523 61.4485 86.3788 62.7997 86.3136 64.2884C86.2325 66.1378 83.8009 67.5969 82.0779 68.3883C81.1253 68.8258 79.8635 68.7937 78.7522 68.7695C77.2039 68.7359 76.1219 67.3882 75.6277 66.5669C75.5078 64.3092 75.7018 63.1207 75.789 62.5127C75.864 62.2227 76.0015 61.9703 76.3285 61.7614" stroke="black" stroke-width="2" stroke-linecap="round"/>
<path d="M77.7149 60.7929C77.6913 60.7854 76.5465 59.6006 73.7209 56.922C70.0177 53.4113 66.29 50.7067 64.0774 48.762C63.0974 47.9236 62.4074 47.3867 61.9293 47.0287C61.4512 46.6707 61.2059 46.5078 60.5446 45.999" stroke="black" stroke-width="2" stroke-linecap="round"/>
<path d="M136.446 31.4424C137.2 31.7544 143.555 38.0611 147.348 42.7484C152.021 48.5236 152.002 59.8073 151.645 64.7127C149.949 71.9418 148.204 78.877 142.782 87.2144C141.559 88.8782 141.057 89.2538 139.925 90.0108" stroke="black" stroke-width="2" stroke-linecap="round"/>
<path d="M23.3394 87.2383C22.5853 86.9262 16.2302 80.6196 12.4375 75.9323C7.76438 70.157 7.78325 58.8734 8.14007 53.968C9.83655 46.7389 11.5812 39.8037 17.0033 31.4662C18.2263 29.8024 18.7286 29.4269 19.8606 28.6698" stroke="black" stroke-width="2" stroke-linecap="round"/>
<path d="M133.657 40.5066C133.775 40.8981 134.985 43.0385 136.483 45.8567C138.148 48.988 138.879 52.775 139.583 55.3491C139.966 56.7542 140.014 60.8461 139.823 66.9246C138.13 72.4161 136.825 74.8205 136.21 75.7034C135.922 76.1025 135.682 76.4021 135.377 76.7633" stroke="black" stroke-width="2" stroke-linecap="round"/>
<path d="M26.1284 78.1741C26.0099 77.7826 24.8002 75.6421 23.3018 72.824C21.6369 69.6927 20.906 65.9057 20.2027 63.3316C19.8188 61.9264 19.7713 57.8346 19.9622 51.7561C21.6557 46.2646 22.9606 43.8602 23.5753 42.9773C23.8635 42.5782 24.1037 42.2786 24.4081 41.9174" stroke="black" stroke-width="2" stroke-linecap="round"/>
<path d="M128.776 50.9651C128.84 51.3008 129.896 53.7133 131.232 56.7824C131.87 59.2486 131.502 61.5425 130.886 62.8873C130.622 63.4959 130.459 63.9546 130.089 64.91" stroke="black" stroke-width="2" stroke-linecap="round"/>
<path d="M31.009 67.7153C30.9448 67.3796 29.8889 64.9671 28.5537 61.898C27.9157 59.4318 28.283 57.1379 28.8992 55.7931C29.1628 55.1845 29.3267 54.7258 29.6961 53.7705" stroke="black" stroke-width="2" stroke-linecap="round"/>
</svg>
